# xmcd CD database file
# Copyright (C) 1997 Ti Kan
# 
# Track frame offsets:
#     225
#     2537
#     24044
#     40706
#     69086
#     91351
#     112916
#     135175
#     157352
#     174822
#     194035
#     215133
#     259180
#     281990
#     300889
# 
# Disc length: 4363 seconds
# 
# Revision: 1
# Processed by: cddbd v1.4b41PL1 Copyright (c) Steve Scherf et al.
# Submitted via: DiscPlay 4.0.3
# 
DISCID=bf11080f
DTITLE=Mizrahi Blue Band - Buscavidas
DYEAR=1900
DGENRE=
TTITLE0=Prologo
TTITLE1=Larga Noche
TTITLE2=Licenciado En Calle
TTITLE3=Mal Destino
TTITLE4=A La Deriva
TTITLE5=Juguetes Multicolores
TTITLE6=Sin Mirar Atr s
TTITLE7=Tati
TTITLE8=Para Que Vuelvas
TTITLE9=Hace Tiempo
TTITLE10=Sin Avisar
TTITLE11=10.000 Metros Lejos De Ti
TTITLE12=Blues Harag n
TTITLE13=El Omb  Estaba De Pi 
TTITLE14=Sin Cero
EXTD=Subido por Exequiel Frontera 9/97
EXTT0=
EXTT1=
EXTT2=
EXTT3=
EXTT4=D o con Adrian Otero (Memphis la Blusera]\n
EXTT5=
EXTT6=
EXTT7=
EXTT8=
EXTT9=
EXTT10=
EXTT11=
EXTT12=
EXTT13=
EXTT14=
PLAYORDER=
